
<svg xmlns="http://www.w3.org/2000/svg" width="1024" height="1024" viewBox="0 0 1024 1024"><path fill="transparent" d="M0 0h1024v1024H0z"/><path fill="#fefefe" d="M712.719 268.483c5.363 3.882 12.907 11.347 17.844 16.077a285.6 285.6 0 0 1 68.066 98.683c13.037 4.886 35.578 10.399 40.265 24.433 6.156 18.436 11.147 39.595 15.468 58.62 3.906 17.193-17.418 15.358-28.185 13.515 3.546 20.864 3.702 43.066 1.362 64.061-.419 3.756-1.224 11.172-2.297 14.584.263 3.679.55 9.344 1.26 12.802 1.587 7.727 4.218 15.702 5.692 23.488 5.091 26.905 9.669 62.027-9.817 84.298-16.896 19.31-33.216 15.931-55.7 19.278-6.17 10.246-24.885 30.436-33.405 39.136-3.289-2.865-6.917-4.984-10.506-7.44-12.92-8.839-25.624-17.875-38.701-26.492-15.93 1.053-35.595 1.142-51.547.994-20.087-.187-44.383-.45-64.262-2.546-18.514-1.953-38.169-6.27-57.03-8.166-6.503 7.355-20.465 17.637-29.973 18.991-8.71 1.24-34.596 4.35-42.029 3.242a27.1 27.1 0 0 1-10.708-4.168c-10.2-6.634-17.926-21.475-20.341-32.978-24.973-3.621-50.083-8.903-75.1-12.097-5.184-1.236-12.344-2.173-17.796-3.083l-28.182-4.965c-6.579-1.095-15.602-2.29-21.991-3.725-2.641 8.967-8.631 28.461-21.281 24.968-7.857-7.705-9.415-10.899-12.832-21.721-2.363 3.893-5.219 9.456-9.956 10.415-11.409 2.309-14.739-19.109-16.115-26.155-9.562-1.991-17.698-2.934-27.483-5.506-1.968-2.736-7.494-12.441-7.668-15.495-.449-7.877.112-16.748.483-24.733 1.893-40.789.796-82.601 10.412-122.492 1.344-5.57 12.007-9.273 17.102-11.433 7.93-37.956 16.238-69.315 36.043-103.305 4.213-7.231 7.175-13.008 12.257-19.948 3.711 1.788 7.419 3.911 11.011 5.937 19.99 11.272 40.972 21.413 60.717 33.067-6.891 9.229-13.841 24.312-18.714 34.765 13.321-7.286 29.157-14.299 42.904-20.999a4365 4365 0 0 1 75.183-36.603l30.83-14.958c14.262-6.948 27.395-13.92 43.734-14.185 4.277-.252 9.816.6 13.971-.139 54.526-9.692 104.667-8.337 158.864 3.278 6.297-7.441 11.685-15.735 17.902-23.239 10.246-12.367 19.792-25.963 30.249-38.061"/><path fill="#f21c34" d="M246.068 339.62c3.711 1.788 7.419 3.911 11.011 5.937 19.99 11.272 40.972 21.413 60.717 33.067-6.891 9.229-13.841 24.312-18.714 34.765-7.715 4.779-23.13 11.273-32.124 15.739a4142 4142 0 0 1-43.716 21.354c-8.14 3.982-17.253 8.817-25.474 12.391 7.93-37.956 16.238-69.315 36.043-103.305 4.213-7.231 7.175-13.008 12.257-19.948"/><path fill="#f21c34" d="M712.719 268.483c5.363 3.882 12.907 11.347 17.844 16.077a285.6 285.6 0 0 1 68.066 98.683c-16.785-4.188-35.741-11.603-53.12-12.889-13.952-24.033-55.402-34.558-80.941-40.571 6.297-7.441 11.685-15.735 17.902-23.239 10.246-12.367 19.792-25.963 30.249-38.061"/><path fill="#f21c34" d="M778.019 417.525c6.396 1.783 21.015 5.217 25.954 9.185 12.92 10.381 10.074 44.222 22.204 53.101 3.546 20.864 3.702 43.066 1.362 64.061-.419 3.756-1.224 11.172-2.297 14.584-.732-2.719-1.547-8.831-2.054-11.872a251 251 0 0 0-3.874-19.165c-8.673-35.54-23.584-78.183-41.295-109.894"/><path fill="#f21c34" d="M684.065 703.526c28.234-.933 54.649-3.248 82.612-5.204-6.17 10.246-24.885 30.436-33.405 39.136-3.289-2.865-6.917-4.984-10.506-7.44-12.92-8.839-25.624-17.875-38.701-26.492"/><path fill="#0a0a09" d="M637.495 364.744a545.6 545.6 0 0 1 75.743 4.581c7.367.928 17.569 2.002 24.499 3.891 34.85 40.52 59.728 100.378 71.8 151.884 2.855 12.183 6.334 26.816 7.112 39.313-58.28 14.897-113.451 12.76-172.481 2.267-10.422-1.855-20.79-4.08-31.168-6.136-7.378-1.461-15.943-4.43-23.287-5.197l-.028-.335a472 472 0 0 0-4.873-36.523 768 768 0 0 0-15.704-68.952c-2.542-9.324-4.961-18.342-8.419-27.391-4.245-11.108-13.532-11.446-23.863-10.113-9.854 1.271-19.734 2.754-29.615 3.948l.196 6.598 2.447 80.717c-17.252-11.456-30.457-24.394-50.405-31.505-21.766-7.76-22.826-8.729-44.96-2.43.115-26.285 5.092-55.796 10.8-81.486 9.153-3.925 28.534-12.836 37.451-14.44 11.923-2.145 33.918 3.004 45.751 6.425 16.653 4.814 50.517 15.032 60.723 28.745 6.274 8.429 11.11 26.21 13.817 36.699 1.94 7.519 1.665 16.628 5.615 23.413 1.733 2.978 5.136 4.491 8.368 5.271 6.349 1.531 24.493 2.269 29.768-1.306 2.53-1.715 4.195-4.181 4.724-7.198 1.102-6.283-6.854-54.598-9.202-62.939-1.09-4-2.88-7.776-5.287-11.151-10.528-14.69-31.51-19.123-48.176-21.998 4.969-.969 11.788-1.28 16.934-1.877 17.34-2.009 34.298-2.414 51.72-2.775"/><path fill="#0a0a09" d="M187.341 478.033c6.282-5.661 46.508-23.529 56.548-28.234l107.402-50.538 73.356-35.169c13.41-6.47 27.074-13.448 40.745-19.259 27.082-11.513 63.625-5.118 81.942 18.804-7.423 1.252-12.994 2.598-20.304 4.688-17.559-6.18-43.881-13.636-62.146-10.04-11.886 2.34-35.417 13.41-47.103 18.626l-50.345 22.224-110.827 49.147c-11.192 5.036-54.967 23.917-64.971 30.899-5.595 3.905-6.571 40.125-6.747 50.619 9.254-1.637 18.799-4.018 28.031-5.993a2857 2857 0 0 0 56.282-12.142 9226 9226 0 0 1 105.534-21.884 2097 2097 0 0 0 32.896-7.014c20.212-4.407 30.922-6.677 49.564 6.199 17.49 12.081 35.084 25.022 52.728 36.86.722 9.493.752 19.458 1.113 29.026l2.062 51.936c.383 9.663.7 27.649 2.414 36.563a89.5 89.5 0 0 0 13.342 33.262l1.441.145c-13.388-29.27-11.309-40.482-11.651-71.62l-1-74.391c14.42 9.676 28.934 20.847 43.74 30.24 4.29 2.722 15.665 11.309 19.977 12.719.625 17.232 2.471 34.714 3.607 52.392 1.425 22.191 7.496 55.528-21.921 62.628-12.705 3.067-21.304-.029-33.77-1.486-19.091-2.23-38.097-6.446-57.161-8.573 7.374-25.419 1.261-68.773-22.059-85.443-14.024-10.025-31.128-1.766-38.883 12.025-11.386 20.252-13.888 42.201-8.389 64.657-14.529-3.094-32.422-5.673-47.247-8.183-.728-30.824-.155-65.143.051-96.118 13.216-1.659 28.283-2.538 41.62-3.654l63.94-5.546c.174-.317.269-.341.21-.594-.431-.287-.758-.326-1.266-.541a9162 9162 0 0 0-256.978 19.882c-8.259.318-16.358 1.286-24.767 1.468 1.026-29.057 2.127-58.695 7.11-87.319.646-3.709 1.427-7.553 1.88-11.268"/><path fill="#a1a2a3" d="M460.096 555.27c1.388-.509 42.713-3.257 43.464-2.908-.134.338-.898.413-1.108.387-2.537-.313-4.462.619-6.953.645-10.807 1.243-21.659 2.11-32.501 3.049-.701.062-1.144.027-1.846-.038.174-.317.269-.341.21-.594-.431-.287-.758-.326-1.266-.541"/><path fill="#a1a2a3" d="M530.298 676.758c1.346 1.528 2.426 4.165 3.153 6.047-1.587-2.044-3.204-4.003-4.594-6.192z"/><path fill="#0a0a09" d="M590.458 569.388c70.39 17.481 158.976 36.616 227.808 2.992 2.464 7.888 5.234 17.611 7.052 25.633-7.252 4.885-14.023 10.135-21.146 14.989-4.056 10.146-9.553 23.013-12.468 33.42 10.904-5.006 26.229-12.777 36.853-17.156.13 16.716-1.05 33.113-13.31 46.158-3.226 3.433-12.106 9.173-16.502 9.943-11.182 1.959-24.932 2.71-36.367 3.666-45.44 4.101-91.045 6.1-136.67 5.991-16.236-.024-40.128-.412-56.178-1.9l-1.125-1.529c32.552-12.278 25.88-47.059 24.647-75.072-.68-15.45-1.031-31.855-2.594-47.135"/><path fill="#fefefe" d="M593.536 595.349a2843 2843 0 0 0 44.688 11.752c11.454 2.84 21.15 4.826 32.444 8.468 5.228 8.908 14.097 28.394 18.616 38.327-24.691-5.345-53.18-16.921-77.773-22.283-4.201-9.797-12.981-26.351-17.975-36.264"/><path fill="#0a0a09" d="M605.704 605.155c17.611 5.387 42.641 11.343 60.777 15.546a367 367 0 0 0 12.152 23.791c-4.437-.55-16-4.49-20.866-5.976l-41.871-12.693a282 282 0 0 1-10.192-20.668"/><path fill="#0a0a09" d="m207.111 576.156 53.873-3.624c10.571-.745 23.075-2.045 33.525-2.257-.096 26.775-.588 54.904-.043 81.585a704 704 0 0 0-30.459-4.835c1.863-15.114-.806-38.041-9.971-50.986-4.164-5.88-10.491-6.663-16.052-2.045-3.962 3.29-6.129 8.428-7.925 13.203-1.767-9.837-11.636-24.345-20.514-11.575-5.965 8.579-6.985 28.338-5.537 38.591-7.011-1.314-14.429-2.846-21.436-4.026-1.85-2.952-4.479-6.89-5.884-9.951.454-12.232 1.645-30.396 1.297-42.196.132-.66.142-.818.366-1.42 8.409-.182 16.508-1.15 24.767-1.468 1.572.849 2.179.703 3.993 1.004"/><path fill="#e5e5e6" d="M178.351 576.62c8.409-.182 16.508-1.15 24.767-1.468 1.572.849 2.179.703 3.993 1.004-8.627 1.016-20.187 1.287-29.126 1.884.132-.66.142-.818.366-1.42"/><path fill="#0a0a09" d="M544.084 422.676c1.731.238 3.32.405 4.754 1.495 6.804 5.174 21.392 69.291 23.903 81.832 3.066 15.314 6.319 31.468 7.486 47.042-3.897-1.895-11.703-7.807-15.477-10.534l-47.264-33.654-.013-82.219c8.341-1.38 18.303-3.078 26.611-3.962"/><path fill="#0a0a09" d="m352.036 565.815.05.031c.808 1.409.301 86.053.23 95.38a4087 4087 0 0 0-47.325-7.489c-2.84-.423-5.639-.986-8.457-1.531.188-26.241 1.054-56.053.137-82.096 18.387-1.062 37.008-3.264 55.365-4.295"/><path fill="#0a0a09" d="M413.015 392.949c.995.001.54-.159 1.335.549.166 2.241-.782 5.898-1.11 8.443a799 799 0 0 0-2.387 20.643c-1.56 16.208-1.907 31.355-1.848 47.578-21.868 6.246-47.506 11.878-69.831 17.256l-.717.003c-2.543-3.908 6.136-59.24 7.621-67.155z"/><path fill="#0a0a09" d="M434.138 603.579c22.862-2.91 30.01 33.082 29.531 49.542-.5 17.207-3.159 41.165-21.637 48.097-12.975.759-18.941-8.144-23.631-18.739-9.313-21.036-9.518-68.498 15.737-78.9"/><path fill="#0a0a09" d="M559.978 330.214c46.753-2.111 105.294 4.396 149.228 22.664 9.284 3.861 17.138 9.498 24.695 16.029-3.965-.538-10.903-2.425-15.092-3.39a458 458 0 0 0-18.236-3.683c-43.589-7.201-98.632-7.151-142.426-2.923-9.581-10.98-21.743-21.947-36.421-25.061a477 477 0 0 1 38.252-3.636"/><path fill="#0a0a09" d="M335.819 423.982c.536.095.208-.009.887.53-.053 3.31-.833 5.688-1.264 8.869-2.505 18.513-2.879 37.039-2.901 55.69a4222 4222 0 0 1-56.933 14.431l-.998-.292c-1.239-8.958 4.536-47.032 7.579-56.904 17.315-7.075 36.81-14.623 53.63-22.324"/><path fill="#0a0a09" d="M543.968 376.879c20.656.051 47.36.845 62.94 16.316 1.483 1.473 4.597 4.979 5.101 7.071 4.717 19.606 7.974 40.798 10.089 60.846.158 1.494-.267 3.424-1.133 4.536-2.853 1.111-19.935.475-22.448-.687-2.991-1.382-7.035-25.861-8.583-30.6-11.818-36.168-11.273-42.185-47.133-56.434-.299-.095-.712-.166-.677-.552.292-.375 1.397-.435 1.844-.496"/><path fill="#2c2a2a" d="M542.801 377.927c-.299-.095-.712-.166-.677-.552.292-.375 1.397-.435 1.844-.496-.291.321-.846.772-1.167 1.048"/><path fill="#0a0a09" d="M753.671 379.814c17.351 1.781 44.191 12.821 61.315 17.87 13.145 3.875 17.179 13.625 19.967 26.163 3.334 14.999 9.623 32.09 11.219 47.54-3.243.399-17.024 1.423-17.922-2.251-3.615-14.776-6.724-31.817-14.819-44.851-6.515-10.488-28.754-13.225-40.238-15.58-5.938-9.71-12.069-20.37-19.522-28.891"/><path fill="#0a0a09" d="m273.781 449.443.744.163c-.001-.006-2.085 14.038-2.277 15.476-1.812 13.578-1.846 26.357-1.776 40.029a1579 1579 0 0 0-45.352 11.55l-.748.073c-2.433-4.593 5.122-42.705 7.298-49.923 12.61-5.834 28.992-12.084 42.111-17.368"/><path fill="#0a0a09" d="M226.037 468.53c.118 2.076-2.585 14.405-2.916 17.537-1.151 10.879-1.247 20.611-1.324 31.553a2060 2060 0 0 0-32.578 8.835c-.452-7.055 1.74-24.71 3.705-31.47 6.221-21.402 17.935-18.011 32.454-26.083z"/><path fill="#0a0a09" d="M243.315 601.909c3.781.231 5.586 1.51 7.585 4.733 7.436 11.991 9.269 53.489-3.529 61.219-15.074-1.587-17.24-56.111-4.056-65.952"/><path fill="#0a0a09" d="M217.099 602.205c11.877 3.215 10.688 46.428 2.853 54.769-.908-.216-2.694-.576-3.218-1.278-7.711-10.328-8.578-44.53.365-53.491"/><path fill="#0a0a09" d="M470.754 686.522c9.043 1.829 18.378 2.801 27.267 4.973-5.243 6.266-8.129 7.947-15.153 11.759-3.277 1.216-3.799 1.268-7.367 1.376-5.654.171-10.929 1.176-16.435 2.306 5.305-8.292 7.116-10.365 11.491-19.99z"/><path fill="#0a0a09" d="M825.911 606.107c1.213 2.195 2.115 15.69 2.272 18.769-8.91 3.452-17.961 9.041-26.431 13.57-.231.201-1.083.65-.948.227 1.721-5.4 6.605-16.553 8.723-21.366 5.122-3.726 11.05-7.435 16.384-11.2"/><path fill="#2c2a2a" d="M569.53 693.124c-.68-.039-5.761-.277-1.933-1.26l.808-.269z"/><path fill="#f21c34" d="M496.319 196.713c4.508-.501 14.706-.312 19.314-.271a323.76 323.76 0 0 1 137.971 33.614c11.95 5.876 21.795 10.88 32.379 19.069-2.996 4.649-7.096 9.656-10.503 14.071-12.871 16.681-26.232 32.997-39.262 49.558a269 269 0 0 0-22.333-11.85 240.83 240.83 0 0 0-182.714-8.867c-23.494 8.137-48.245 22.456-67.704 38.042-8.189 6.56-16.776 14.959-24.466 22.236a4485 4485 0 0 1-73.241-38.78 285 285 0 0 1 6.104-7.172 359 359 0 0 1 39.819-38.971 319.04 319.04 0 0 1 184.636-70.679"/><path fill="#f21c34" d="M635.782 711.458c2.37.509 66.748 43.897 72.448 47.714-6.047 5.932-19.782 14.938-27.081 19.536-46.734 29.44-94.878 44.094-149.609 48.244-28.706 1.067-45.315.528-73.482-4.181l31.15-55.941c3.689-6.475 8.293-15.89 12.407-21.725 3.822.446 10.822.396 14.853.343 30.445-.401 61.893-7.437 89.909-19.256 9.791-4.131 19.965-9.733 29.405-14.734"/><path fill="#f21c34" d="M265.106 655.025c6.389 1.435 15.412 2.63 21.991 3.725l28.182 4.965c5.452.91 12.612 1.847 17.796 3.083 1.205 2.469 9.323 9.471 11.606 11.731 24.341 24.095 55.856 42.917 88.416 54.114a218 218 0 0 0 32.733 8.601c-13.337 24.845-27.657 50.251-41.357 75.009-8.059-2.823-16.976-5.583-24.741-8.578-47.467-18.307-90.18-46.356-123.852-84.727-10.067-11.472-24.84-29.517-32.055-42.955 12.65 3.493 18.64-16.001 21.281-24.968"/></svg>